<svg xmlns="http://www.w3.org/2000/svg" xmlns:xlink="http://www.w3.org/1999/xlink" width="600" height="600" viewBox="0 0 600 600">
  <defs>
    <clipPath id="clip-logo">
      <rect width="600" height="600"/>
    </clipPath>
  </defs>
  <g id="logo" clip-path="url(#clip-logo)">
    <rect width="600" height="600" fill="#fff"/>
    <path id="Path_3" data-name="Path 3" d="M0,0H300V600H0Z" fill="#ffc400"/>
    <path id="Path_4" data-name="Path 4" d="M0,0H300V600H0Z" transform="translate(300)" fill="#239caa"/>
    <path id="Path_2" data-name="Path 2" d="M189.839,206.5a10.531,10.531,0,0,0,21.057,0V-73.686A10.457,10.457,0,0,0,200.582-84a10.553,10.553,0,0,0-10.743,10.314V47.5c-18.479-24.925-47.7-41.255-80.791-41.255C52.322,6.245,7.2,53.516,7.2,111.961c0,57.585,45.122,104.856,101.848,104.856a100.107,100.107,0,0,0,80.791-40.825Zm-80.791-10.743c-44.263,0-80.791-37.387-80.791-83.8,0-46.841,36.528-84.658,80.791-84.658,43.4,0,79.072,36.1,80.791,81.22V115.4C188.12,160.091,152.451,195.759,109.048,195.759Z" transform="translate(69.104 216)" fill="#fff"/>
    <path id="Path_1" data-name="Path 1" d="M10.021,121.69c17.19,13.752,43.833,29.652,77.783,30.082,20.627,0,37.817-6.016,52.428-16.76,14.181-10.743,24.065-24.925,24.065-42.544s-9.884-33.949-23.636-42.974A146.384,146.384,0,0,0,89.523,32.3h-.859C69.325,29.3,55.144,24.139,45.689,17.693,37.524,11.247,33.657,5.231,33.657-3.364s4.727-17.19,13.322-24.065C56-34.735,69.755-39.462,86.944-39.462c20.627,0,36.1,10.743,51.569,21.057a10.327,10.327,0,0,0,14.181-3.008,10.934,10.934,0,0,0-3.008-14.611C133.356-46.338,114.018-58.8,86.944-58.8c-21.487,0-39.106,5.587-51.569,14.181C22.054-34.735,12.6-20.124,12.6-3.364c0,16.33,9.454,30.082,22.776,37.817,12.033,8.595,28.792,12.892,47.7,16.33l.859.43c20.627,3.438,35.668,8.595,44.693,15.471,10.743,9.025,14.611,15.9,15.041,25.784,0,9.454-5.587,18.908-15.9,25.784-9.454,7.735-23.636,12.892-39.966,12.892-26.644,0-49.85-13.752-64.461-24.5a10.237,10.237,0,0,0-14.611,1.289C5.294,112.236,5.724,117.822,10.021,121.69Z" transform="translate(313.56 281.045)" fill="#fff"/>
  </g>
</svg>
